<?xml version="1.0" encoding="utf-8"?><svg xmlns="http://www.w3.org/2000/svg" xmlns:xlink="http://www.w3.org/1999/xlink"><symbol fill="none" viewBox="0 0 12 12" id="ellipsis" xmlns="http://www.w3.org/2000/svg"><path fill="#000" fill-rule="evenodd" d="M5 6a1 1 0 112 0 1 1 0 01-2 0zm3.5 0a1 1 0 112 0 1 1 0 01-2 0zm-7 0a1 1 0 112 0 1 1 0 01-2 0z" clip-rule="evenodd"/></symbol><symbol fill="none" viewBox="0 0 14 14" id="plus" xmlns="http://www.w3.org/2000/svg"><path fill="#000" fill-rule="evenodd" d="M7 2.333c.322 0 .583.261.583.584v8.166a.583.583 0 01-1.166 0V2.917c0-.323.26-.584.583-.584z" clip-rule="evenodd"/><path fill="#000" fill-rule="evenodd" d="M2.333 7c0-.322.261-.583.584-.583h8.166a.583.583 0 010 1.166H2.917A.583.583 0 012.333 7z" clip-rule="evenodd"/></symbol><symbol viewBox="0 0 0 0" id="sprite-sheet" xmlns="http://www.w3.org/2000/svg"/></svg>